# xmcd
#
# Track frame offsets:
#	150
#	15070
#	29385
#	40915
#	55685
#	69800
#	79965
#	99052
#	114182
#	124695
#	135595
#	147325
#	158817
#	169384
#	182457
#
# Disc length: 2611 seconds
# Revision: 2
# Processed by: cddbd v1.5.2PL0 Copyright (c) Steve Scherf et al.
# Submitted via: dBpowerAMP V12.0
#
DISCID=af0a310f
DTITLE=Various Artist - Classic Country: 1975-1979 D1
DYEAR=2010
DGENRE=Country
TTITLE0=Waylon Jennings - Luckenbach, Texas (Back To the Basics of Love)
TTITLE1=The Bellamy Brothers - If I Said You Have A Beautiful Body Would You Hold It Against Me
TTITLE2=Crystal Gayle - Don't It Make My Brown Eyes Blue
TTITLE3=Glen Campbell - Rhinestone Cowboy
TTITLE4=Merle Haggard and the Strangers - Always Wanting You
TTITLE5=The Statler Brothers - Do You Know You Are My Sunshine
TTITLE6=Marty Robbins - El Paso City
TTITLE7=B.J. Thomas - (Hey Won't You Play) Another Somebody Done Somebody Wrong Song
TTITLE8=Barbara Mandrell - Sleeping Single In A Double Bed
TTITLE9=The Kendalls - Heaven's Just A Sin Away
TTITLE10=Freddy Fender - Before the Next Teardrops Falls
TTITLE11=Willie Nelson - Mammas Don't Let Your Babies Grow Up to Be Cowboys
TTITLE12=Willie Nelson - Blue Eyes Crying In the Rain
TTITLE13=Conway Twitty - Happy Birthday Darlin'
TTITLE14=Dolly Parton - Here You Come Again
EXTD=
EXTT0=
EXTT1=
EXTT2=
EXTT3=
EXTT4=
EXTT5=
EXTT6=
EXTT7=
EXTT8=
EXTT9=
EXTT10=
EXTT11=
EXTT12=
EXTT13=
EXTT14=
PLAYORDER=
